# xmcd
#
# Track frame offsets:
#	150
#	18174
#	35520
#	52969
#	68965
#	93535
#	113199
#	133059
#	150035
#	168403
#
# Disc length: 2459 seconds
#
# Revision: 1
# Processed by: cddbd v1.5PL3 Copyright (c) Steve Scherf et al.
# Submitted via: audiograbber 1.82.01
#
DISCID=7709990a
DTITLE=Nelly Makdessi - Ana Eh
DYEAR=1900
DGENRE=Ethnic
TTITLE0=Ana Eh
TTITLE1=Law Bethebni
TTITLE2=Kif Ansak
TTITLE3=3younak
TTITLE4=Ana W Leil 
TTITLE5=Ashtak
TTITLE6=Ghali
TTITLE7=Hobbak Na3em
TTITLE8=Mot3ab El Kaleb
TTITLE9=Ya Bourdayen
EXTD=
EXTT0=
EXTT1=
EXTT2=
EXTT3=
EXTT4=
EXTT5=
EXTT6=
EXTT7=
EXTT8=
EXTT9=
PLAYORDER=
